<svg id="_0102_traveling" xmlns="http://www.w3.org/2000/svg" viewBox="0 0 500 500" data-imageid="traveling-82" imageName="Traveling" class="illustrations_image" style="width: 188px;"><defs><style>.cls-1_traveling-82{fill:#fff;}.cls-2_traveling-82{fill:#f4a28c;}.cls-3_traveling-82{opacity:.46;}.cls-3_traveling-82,.cls-4_traveling-82,.cls-5_traveling-82,.cls-6_traveling-82,.cls-7_traveling-82,.cls-8_traveling-82,.cls-9_traveling-82{fill:none;}.cls-4_traveling-82{opacity:.58;}.cls-10_traveling-82{fill:#ce8172;}.cls-11_traveling-82{fill:#e6e6e6;}.cls-5_traveling-82{opacity:.03;}.cls-6_traveling-82{opacity:.73;}.cls-7_traveling-82{opacity:.08;}.cls-8_traveling-82{opacity:.31;}.cls-9_traveling-82{opacity:.3;}.cls-12_traveling-82{fill:#24285b;}.cls-13_traveling-82{fill:#000001;}.cls-14_traveling-82{fill:#ffd200;}.cls-15_traveling-82{fill:#68e1fd;}</style></defs><g id="bg_traveling-82"><g class="cls-9_traveling-82"><path class="cls-11_traveling-82" d="m84.43,100.83c-41.38,32.13-65.89,91.11-62,152.69,1.99,31.49,11.16,61.87,35.42,78.46,64.69,44.24,347.1,44.99,388.9-33.18,41.8-78.18,26.24-189.25-64.65-235.53C303.31,23.15,191.28,17.85,84.43,100.83Z"/></g><g class="cls-5_traveling-82"><ellipse class="cls-13_traveling-82" cx="255.63" cy="440.35" rx="222.34" ry="24.57"/></g></g><g id="plant_traveling-82"><g class="cls-4_traveling-82"><path class="cls-15_traveling-82 targetColor" d="m80.71,420.21s-15.28-4.17-18.6-18.39c0,0,23.67-4.78,24.35,19.65l-5.75-1.26Z" style="fill: rgb(104, 225, 253);"/></g><g class="cls-6_traveling-82"><path class="cls-15_traveling-82 targetColor" d="m82.58,418.69s-10.67-16.88-1.28-32.66c0,0,18,11.43,10,32.69l-8.72-.04Z" style="fill: rgb(104, 225, 253);"/></g><path class="cls-15_traveling-82 targetColor" d="m85.33,418.7s5.64-17.82,22.69-21.2c0,0,3.2,11.57-11.04,21.25l-11.65-.05Z" style="fill: rgb(104, 225, 253);"/><polygon class="cls-12_traveling-82" points="74.25 418.3 77.35 439.49 96.85 439.58 99.73 418.41 74.25 418.3"/></g><g id="person_traveling-82"><path class="cls-14_traveling-82" d="m436.93,330.9h-6v-40.88c0-2.48-2.02-4.49-4.49-4.49h-29.8c-2.48,0-4.49,2.02-4.49,4.49v40.88h-6v-40.88c0-5.79,4.71-10.49,10.49-10.49h29.8c5.79,0,10.49,4.71,10.49,10.49v40.88Z"/><path class="cls-14_traveling-82" d="m188.49,233.74s-29.58,11.87-20.02,46.26c9.56,34.39,10.46,38.11,31.78,35.98,21.33-2.12,7.52-35.98,7.52-35.98l-19.28-46.26Z"/><path class="cls-15_traveling-82 targetColor" d="m177.37,127.6s-82.01,19.02-103.59,67.08l72.65,5.48,18.6-11.28,12.34-61.28Z" style="fill: rgb(104, 225, 253);"/><g class="cls-3_traveling-82"><path class="cls-1_traveling-82" d="m177.37,127.6s-82.01,19.02-103.59,67.08l72.65,5.48,18.6-11.28,12.34-61.28Z"/></g><path class="cls-15_traveling-82 targetColor" d="m149.03,395.96s-7.19,5.2-13.77,1.47c-6.58-3.73-12.38,1.24-7.86,6.66,4.51,5.41,23.87,8.09,23.87,8.09l7.28-11.75-9.51-4.46Z" style="fill: rgb(104, 225, 253);"/><path class="cls-15_traveling-82 targetColor" d="m278.49,418.91s3.13,8.3,10.68,8.82c7.55.52,9.64,7.87,2.88,9.89-6.75,2.02-24.37-6.43-24.37-6.43l.41-13.82,10.39,1.53Z" style="fill: rgb(104, 225, 253);"/><path class="cls-2_traveling-82" d="m183.56,85.43s2.79,10.16,6.88,16.09c1.66,2.41,5,3.02,7.38,1.33,2.96-2.1,6.35-5.8,5.51-11.42l-.25-9.72s-.37-6.09-7.42-8.03c-7.05-1.94-14.12,5.65-12.1,11.75Z"/><polygon class="cls-2_traveling-82" points="204.88 86.82 218.54 118.53 200.53 124.81 197.82 99.22 204.88 86.82"/><path class="cls-12_traveling-82" d="m207.19,88.89h0c.16.43,0,.9-.37,1.16-1.36.92-4.73,2.61-8.46-.16-4.84-3.59-3.35-9.04-3.35-9.04-3.93,2.34-7.09,3.53-8.85,4.08-1.05.33-2.13.54-3.23.51l-5.29-6.47s-6.82-5.9-3.05-9.13c3.77-3.23,7.68.97,9.86-3.95,2.18-4.92,2.48-6.56,6.88-6,4.4.57,1.33,5.03,7.3,2.75s7.03.12,8.12,2.82c.27.68.15,1.73-.19,2.93-1.91,6.77-1.89,13.93.64,20.49Z"/><path class="cls-2_traveling-82" d="m197.19,90s-1.34-3.83,1.63-4.6c2.97-.77,4.93,4.76,1.24,6.71l-2.87-2.11Z"/><path class="cls-2_traveling-82" d="m185.65,91.74l-1.34,4.83c-.33,1.19.69,2.32,1.91,2.12l4.04-.69-4.61-6.25Z"/><rect class="cls-12_traveling-82" x="398.27" y="278.88" width="26.38" height="8.54"/><g class="cls-8_traveling-82"><path class="cls-10_traveling-82" d="m198.25,102.62s2.32-.78,6-5.36c0,0,1.69,6.68-5.27,12.89l-.73-7.53Z"/></g><path class="cls-15_traveling-82 targetColor" d="m193.1,122.28l10.36-1.86c4.85-.87,9.64-2,14.38-3.35,17.76-5.08,69.95-16.99,84.8,13.22,17.99,36.59-12.05,155.3-12.05,155.3h-82.15s-16.79-49.44-40.78-80.03c-23.99-30.59-40.87-64.58,25.44-83.27Z" style="fill: rgb(104, 225, 253);"/><g class="cls-7_traveling-82"><path class="cls-13_traveling-82" d="m177.37,127.6s-4.13,26.33,32.03,6.41l-9.27-12.99s-9,.98-22.75,6.58Z"/></g><path class="cls-2_traveling-82" d="m84.73,224.01c-16.39-5.1-18.84-27.49-3.99-36.08,4.56-2.64,10.33-4.62,17.58-5.16,27.55-2.04,74.47-4.59,74.47-4.59,0,0,28.25,9.18,23.82,22.95-4.44,13.77-24.33-8.16-24.33-8.16,0,0-52.51,41.94-87.56,31.04Z"/><rect class="cls-12_traveling-82" x="164.81" y="177.01" width="9.75" height="19.83" transform="translate(-24.16 25.19) rotate(-7.93)"/><rect class="cls-14_traveling-82" x="163.62" y="175.3" width="9.75" height="6.17" transform="translate(-22.99 24.95) rotate(-7.93)"/><path class="cls-2_traveling-82" d="m200.13,121.02s-12.51,11.51,1.95,13.99c14.46,2.47,15.77-17.94,15.77-17.94l-17.72,3.95Z"/><path class="cls-12_traveling-82" d="m208.44,285.58l-62,110.37,16,11.14s34.26-57.16,75.03-85.87c5.64-3.97,13.55-1.29,15.68,5.27,11.04,34.1,11.97,93.47,11.97,93.47h18.89l6.58-134.39h-82.15Z"/><g class="cls-7_traveling-82"><path class="cls-13_traveling-82" d="m208.44,285.58s30.87-24.13,41.79-58.72c2.43-7.69,12.38-9.75,17.86-3.83l29.36,31.75,5.93-33.18-21.46-67.93-40.63-26.07-8.1,31.47-24.74,126.51Z"/></g><path class="cls-14_traveling-82" d="m195.1,255.03s19.04-18.89,22.75-82.02c3.08-52.5,10.61-62.76,26.34-66.45,24.29-5.7,30.08,1.52,37.73,12.32,0,0-38.83,2.4-37.49,26.69,1.35,24.29-4.05,110.88-35.99,140.01,0,0-14.83-1.25-13.34-30.55Z"/><g class="cls-3_traveling-82"><path class="cls-1_traveling-82" d="m195.1,255.03s19.04-18.89,22.75-82.02c3.08-52.5,10.61-62.76,26.34-66.45,24.29-5.7,30.08,1.52,37.73,12.32,0,0-38.83,2.4-37.49,26.69,1.35,24.29-4.05,110.88-35.99,140.01,0,0-14.83-1.25-13.34-30.55Z"/></g><path class="cls-2_traveling-82" d="m248.33,149.91c-8.02-19.29,14.39-43.76,33.88-36.21,16.64,6.44,34.43,20.7,44.08,49.41,22.94,68.23,74.67,101.21,74.67,101.21,0,0,26.39,4.34,26.39,13.94s-31.19,0-31.19,0c0,0-80.97-33.59-122.95-87.57-12.61-16.21-20.3-29.76-24.88-40.79Z"/><path class="cls-15_traveling-82 targetColor" d="m296.68,215.71s32.15-10.89,40.33-26.8c0,0-11.64-62.76-53.01-76.25-13.6-4.43-28.81.55-35.94,12.95-8.66,15.06-6.86,42.77,48.62,90.09Z" style="fill: rgb(104, 225, 253);"/><g class="cls-3_traveling-82"><path class="cls-1_traveling-82" d="m296.68,215.71s32.15-10.89,40.33-26.8c0,0-11.64-62.76-53.01-76.25-13.6-4.43-28.81.55-35.94,12.95-8.66,15.06-6.86,42.77,48.62,90.09Z"/></g><rect class="cls-14_traveling-82" x="369.48" y="318.76" width="84.12" height="108.9"/><rect class="cls-12_traveling-82" x="380.72" y="427.66" width="10.28" height="10.28"/><rect class="cls-12_traveling-82" x="430.65" y="427.66" width="10.28" height="10.28"/><g class="cls-7_traveling-82"><rect class="cls-13_traveling-82" x="383.42" y="339" width="11.7" height="65.07"/></g><g class="cls-7_traveling-82"><rect class="cls-13_traveling-82" x="405.69" y="339" width="11.7" height="65.07"/></g><g class="cls-7_traveling-82"><rect class="cls-13_traveling-82" x="426.61" y="339" width="11.7" height="65.07"/></g></g><g id="sign_traveling-82"><circle class="cls-12_traveling-82" cx="375.26" cy="79.41" r="36.28"/><polygon class="cls-12_traveling-82" points="361.23 79.41 330.2 110.34 371.33 93.93 361.23 79.41"/><rect class="cls-1_traveling-82" x="371.33" y="63.09" width="6.05" height="19.11"/><rect class="cls-1_traveling-82" x="371.33" y="87.45" width="6.05" height="6.05"/></g></svg>